<mxfile host="Electron" agent="Mozilla/5.0 (Windows NT 10.0; Win64; x64) AppleWebKit/537.36 (KHTML, like Gecko) draw.io/26.2.2 Chrome/134.0.6998.178 Electron/35.1.2 Safari/537.36" version="26.2.2">
  <diagram name="Page-1" id="fc2ac565-0d4e-3f0d-88b0-a54af1634ed7">
    <mxGraphModel dx="1985" dy="2740.5" grid="1" gridSize="10" guides="1" tooltips="1" connect="0" arrows="1" fold="1" page="1" pageScale="1.5" pageWidth="1169" pageHeight="827" background="none" math="0" shadow="0">
      <root>
        <mxCell id="0" style=";html=1;" />
        <mxCell id="1" style=";html=1;" parent="0" />
        <mxCell id="-NBJdDoFNdwXWmNdcnpx-100" value="" style="shape=table;startSize=0;container=1;collapsible=0;childLayout=tableLayout;fontSize=12;" parent="1" vertex="1">
          <mxGeometry x="350" y="-880" width="1004" height="310" as="geometry" />
        </mxCell>
        <mxCell id="-NBJdDoFNdwXWmNdcnpx-101" value="" style="shape=tableRow;horizontal=0;startSize=0;swimlaneHead=0;swimlaneBody=0;strokeColor=inherit;top=0;left=0;bottom=0;right=0;collapsible=0;dropTarget=0;fillColor=none;points=[[0,0.5],[1,0.5]];portConstraint=eastwest;fontSize=12;" parent="-NBJdDoFNdwXWmNdcnpx-100" vertex="1">
          <mxGeometry width="1004" height="52" as="geometry" />
        </mxCell>
        <mxCell id="-NBJdDoFNdwXWmNdcnpx-102" value="" style="shape=partialRectangle;html=1;whiteSpace=wrap;connectable=0;strokeColor=inherit;overflow=hidden;fillColor=none;top=0;left=0;bottom=0;right=0;pointerEvents=1;fontSize=12;" parent="-NBJdDoFNdwXWmNdcnpx-101" vertex="1">
          <mxGeometry width="144" height="52" as="geometry">
            <mxRectangle width="144" height="52" as="alternateBounds" />
          </mxGeometry>
        </mxCell>
        <mxCell id="-NBJdDoFNdwXWmNdcnpx-147" value="Управление &lt;br&gt;договорами" style="shape=partialRectangle;html=1;whiteSpace=wrap;connectable=0;strokeColor=inherit;overflow=hidden;fillColor=none;top=0;left=0;bottom=0;right=0;pointerEvents=1;fontSize=12;" parent="-NBJdDoFNdwXWmNdcnpx-101" vertex="1">
          <mxGeometry x="144" width="142" height="52" as="geometry">
            <mxRectangle width="142" height="52" as="alternateBounds" />
          </mxGeometry>
        </mxCell>
        <mxCell id="-NBJdDoFNdwXWmNdcnpx-103" value="Продажи в сети отделений" style="shape=partialRectangle;html=1;whiteSpace=wrap;connectable=0;strokeColor=inherit;overflow=hidden;fillColor=none;top=0;left=0;bottom=0;right=0;pointerEvents=1;fontSize=12;" parent="-NBJdDoFNdwXWmNdcnpx-101" vertex="1">
          <mxGeometry x="286" width="142" height="52" as="geometry">
            <mxRectangle width="142" height="52" as="alternateBounds" />
          </mxGeometry>
        </mxCell>
        <mxCell id="-NBJdDoFNdwXWmNdcnpx-104" value="Digital-оповещения клиентов" style="shape=partialRectangle;html=1;whiteSpace=wrap;connectable=0;strokeColor=inherit;overflow=hidden;fillColor=none;top=0;left=0;bottom=0;right=0;pointerEvents=1;fontSize=12;" parent="-NBJdDoFNdwXWmNdcnpx-101" vertex="1">
          <mxGeometry x="428" width="144" height="52" as="geometry">
            <mxRectangle width="144" height="52" as="alternateBounds" />
          </mxGeometry>
        </mxCell>
        <mxCell id="-NBJdDoFNdwXWmNdcnpx-141" value="Обслуживание депозитных процессов" style="shape=partialRectangle;html=1;whiteSpace=wrap;connectable=0;strokeColor=inherit;overflow=hidden;fillColor=none;top=0;left=0;bottom=0;right=0;pointerEvents=1;fontSize=12;" parent="-NBJdDoFNdwXWmNdcnpx-101" vertex="1">
          <mxGeometry x="572" width="144" height="52" as="geometry">
            <mxRectangle width="144" height="52" as="alternateBounds" />
          </mxGeometry>
        </mxCell>
        <mxCell id="-NBJdDoFNdwXWmNdcnpx-135" value="Обслуживание кредитных процессов" style="shape=partialRectangle;html=1;whiteSpace=wrap;connectable=0;strokeColor=inherit;overflow=hidden;fillColor=none;top=0;left=0;bottom=0;right=0;pointerEvents=1;fontSize=12;" parent="-NBJdDoFNdwXWmNdcnpx-101" vertex="1">
          <mxGeometry x="716" width="144" height="52" as="geometry">
            <mxRectangle width="144" height="52" as="alternateBounds" />
          </mxGeometry>
        </mxCell>
        <mxCell id="-NBJdDoFNdwXWmNdcnpx-129" value="Продажи через кол-центр" style="shape=partialRectangle;html=1;whiteSpace=wrap;connectable=0;strokeColor=inherit;overflow=hidden;fillColor=none;top=0;left=0;bottom=0;right=0;pointerEvents=1;fontSize=12;" parent="-NBJdDoFNdwXWmNdcnpx-101" vertex="1">
          <mxGeometry x="860" width="144" height="52" as="geometry">
            <mxRectangle width="144" height="52" as="alternateBounds" />
          </mxGeometry>
        </mxCell>
        <mxCell id="-NBJdDoFNdwXWmNdcnpx-121" value="" style="shape=tableRow;horizontal=0;startSize=0;swimlaneHead=0;swimlaneBody=0;strokeColor=inherit;top=0;left=0;bottom=0;right=0;collapsible=0;dropTarget=0;fillColor=none;points=[[0,0.5],[1,0.5]];portConstraint=eastwest;fontSize=12;" parent="-NBJdDoFNdwXWmNdcnpx-100" vertex="1">
          <mxGeometry y="52" width="1004" height="51" as="geometry" />
        </mxCell>
        <mxCell id="-NBJdDoFNdwXWmNdcnpx-122" value="фронт-офис" style="shape=partialRectangle;html=1;whiteSpace=wrap;connectable=0;strokeColor=inherit;overflow=hidden;fillColor=none;top=0;left=0;bottom=0;right=0;pointerEvents=1;fontSize=12;" parent="-NBJdDoFNdwXWmNdcnpx-121" vertex="1">
          <mxGeometry width="144" height="51" as="geometry">
            <mxRectangle width="144" height="51" as="alternateBounds" />
          </mxGeometry>
        </mxCell>
        <mxCell id="-NBJdDoFNdwXWmNdcnpx-148" value="" style="shape=partialRectangle;html=1;whiteSpace=wrap;connectable=0;strokeColor=inherit;overflow=hidden;fillColor=none;top=0;left=0;bottom=0;right=0;pointerEvents=1;fontSize=12;" parent="-NBJdDoFNdwXWmNdcnpx-121" vertex="1">
          <mxGeometry x="144" width="142" height="51" as="geometry">
            <mxRectangle width="142" height="51" as="alternateBounds" />
          </mxGeometry>
        </mxCell>
        <mxCell id="-NBJdDoFNdwXWmNdcnpx-123" value="" style="shape=partialRectangle;html=1;whiteSpace=wrap;connectable=0;strokeColor=inherit;overflow=hidden;fillColor=none;top=0;left=0;bottom=0;right=0;pointerEvents=1;fontSize=12;" parent="-NBJdDoFNdwXWmNdcnpx-121" vertex="1">
          <mxGeometry x="286" width="142" height="51" as="geometry">
            <mxRectangle width="142" height="51" as="alternateBounds" />
          </mxGeometry>
        </mxCell>
        <mxCell id="-NBJdDoFNdwXWmNdcnpx-124" value="" style="shape=partialRectangle;html=1;whiteSpace=wrap;connectable=0;strokeColor=inherit;overflow=hidden;fillColor=none;top=0;left=0;bottom=0;right=0;pointerEvents=1;fontSize=12;" parent="-NBJdDoFNdwXWmNdcnpx-121" vertex="1">
          <mxGeometry x="428" width="144" height="51" as="geometry">
            <mxRectangle width="144" height="51" as="alternateBounds" />
          </mxGeometry>
        </mxCell>
        <mxCell id="-NBJdDoFNdwXWmNdcnpx-142" style="shape=partialRectangle;html=1;whiteSpace=wrap;connectable=0;strokeColor=inherit;overflow=hidden;fillColor=none;top=0;left=0;bottom=0;right=0;pointerEvents=1;fontSize=12;" parent="-NBJdDoFNdwXWmNdcnpx-121" vertex="1">
          <mxGeometry x="572" width="144" height="51" as="geometry">
            <mxRectangle width="144" height="51" as="alternateBounds" />
          </mxGeometry>
        </mxCell>
        <mxCell id="-NBJdDoFNdwXWmNdcnpx-136" style="shape=partialRectangle;html=1;whiteSpace=wrap;connectable=0;strokeColor=inherit;overflow=hidden;fillColor=none;top=0;left=0;bottom=0;right=0;pointerEvents=1;fontSize=12;" parent="-NBJdDoFNdwXWmNdcnpx-121" vertex="1">
          <mxGeometry x="716" width="144" height="51" as="geometry">
            <mxRectangle width="144" height="51" as="alternateBounds" />
          </mxGeometry>
        </mxCell>
        <mxCell id="-NBJdDoFNdwXWmNdcnpx-130" style="shape=partialRectangle;html=1;whiteSpace=wrap;connectable=0;strokeColor=inherit;overflow=hidden;fillColor=none;top=0;left=0;bottom=0;right=0;pointerEvents=1;fontSize=12;" parent="-NBJdDoFNdwXWmNdcnpx-121" vertex="1">
          <mxGeometry x="860" width="144" height="51" as="geometry">
            <mxRectangle width="144" height="51" as="alternateBounds" />
          </mxGeometry>
        </mxCell>
        <mxCell id="-NBJdDoFNdwXWmNdcnpx-117" value="" style="shape=tableRow;horizontal=0;startSize=0;swimlaneHead=0;swimlaneBody=0;strokeColor=inherit;top=0;left=0;bottom=0;right=0;collapsible=0;dropTarget=0;fillColor=none;points=[[0,0.5],[1,0.5]];portConstraint=eastwest;fontSize=12;" parent="-NBJdDoFNdwXWmNdcnpx-100" vertex="1">
          <mxGeometry y="103" width="1004" height="52" as="geometry" />
        </mxCell>
        <mxCell id="-NBJdDoFNdwXWmNdcnpx-118" value="обслуживание депозитных продуктов" style="shape=partialRectangle;html=1;whiteSpace=wrap;connectable=0;strokeColor=inherit;overflow=hidden;fillColor=none;top=0;left=0;bottom=0;right=0;pointerEvents=1;fontSize=12;" parent="-NBJdDoFNdwXWmNdcnpx-117" vertex="1">
          <mxGeometry width="144" height="52" as="geometry">
            <mxRectangle width="144" height="52" as="alternateBounds" />
          </mxGeometry>
        </mxCell>
        <mxCell id="-NBJdDoFNdwXWmNdcnpx-149" style="shape=partialRectangle;html=1;whiteSpace=wrap;connectable=0;strokeColor=inherit;overflow=hidden;fillColor=none;top=0;left=0;bottom=0;right=0;pointerEvents=1;fontSize=12;" parent="-NBJdDoFNdwXWmNdcnpx-117" vertex="1">
          <mxGeometry x="144" width="142" height="52" as="geometry">
            <mxRectangle width="142" height="52" as="alternateBounds" />
          </mxGeometry>
        </mxCell>
        <mxCell id="-NBJdDoFNdwXWmNdcnpx-119" value="" style="shape=partialRectangle;html=1;whiteSpace=wrap;connectable=0;strokeColor=inherit;overflow=hidden;fillColor=none;top=0;left=0;bottom=0;right=0;pointerEvents=1;fontSize=12;" parent="-NBJdDoFNdwXWmNdcnpx-117" vertex="1">
          <mxGeometry x="286" width="142" height="52" as="geometry">
            <mxRectangle width="142" height="52" as="alternateBounds" />
          </mxGeometry>
        </mxCell>
        <mxCell id="-NBJdDoFNdwXWmNdcnpx-120" value="" style="shape=partialRectangle;html=1;whiteSpace=wrap;connectable=0;strokeColor=inherit;overflow=hidden;fillColor=none;top=0;left=0;bottom=0;right=0;pointerEvents=1;fontSize=12;" parent="-NBJdDoFNdwXWmNdcnpx-117" vertex="1">
          <mxGeometry x="428" width="144" height="52" as="geometry">
            <mxRectangle width="144" height="52" as="alternateBounds" />
          </mxGeometry>
        </mxCell>
        <mxCell id="-NBJdDoFNdwXWmNdcnpx-143" style="shape=partialRectangle;html=1;whiteSpace=wrap;connectable=0;strokeColor=inherit;overflow=hidden;fillColor=none;top=0;left=0;bottom=0;right=0;pointerEvents=1;fontSize=12;" parent="-NBJdDoFNdwXWmNdcnpx-117" vertex="1">
          <mxGeometry x="572" width="144" height="52" as="geometry">
            <mxRectangle width="144" height="52" as="alternateBounds" />
          </mxGeometry>
        </mxCell>
        <mxCell id="-NBJdDoFNdwXWmNdcnpx-137" style="shape=partialRectangle;html=1;whiteSpace=wrap;connectable=0;strokeColor=inherit;overflow=hidden;fillColor=none;top=0;left=0;bottom=0;right=0;pointerEvents=1;fontSize=12;" parent="-NBJdDoFNdwXWmNdcnpx-117" vertex="1">
          <mxGeometry x="716" width="144" height="52" as="geometry">
            <mxRectangle width="144" height="52" as="alternateBounds" />
          </mxGeometry>
        </mxCell>
        <mxCell id="-NBJdDoFNdwXWmNdcnpx-131" style="shape=partialRectangle;html=1;whiteSpace=wrap;connectable=0;strokeColor=inherit;overflow=hidden;fillColor=none;top=0;left=0;bottom=0;right=0;pointerEvents=1;fontSize=12;" parent="-NBJdDoFNdwXWmNdcnpx-117" vertex="1">
          <mxGeometry x="860" width="144" height="52" as="geometry">
            <mxRectangle width="144" height="52" as="alternateBounds" />
          </mxGeometry>
        </mxCell>
        <mxCell id="-NBJdDoFNdwXWmNdcnpx-113" value="" style="shape=tableRow;horizontal=0;startSize=0;swimlaneHead=0;swimlaneBody=0;strokeColor=inherit;top=0;left=0;bottom=0;right=0;collapsible=0;dropTarget=0;fillColor=none;points=[[0,0.5],[1,0.5]];portConstraint=eastwest;fontSize=12;" parent="-NBJdDoFNdwXWmNdcnpx-100" vertex="1">
          <mxGeometry y="155" width="1004" height="51" as="geometry" />
        </mxCell>
        <mxCell id="-NBJdDoFNdwXWmNdcnpx-114" value="обслуживание кредитных продуктов" style="shape=partialRectangle;html=1;whiteSpace=wrap;connectable=0;strokeColor=inherit;overflow=hidden;fillColor=none;top=0;left=0;bottom=0;right=0;pointerEvents=1;fontSize=12;" parent="-NBJdDoFNdwXWmNdcnpx-113" vertex="1">
          <mxGeometry width="144" height="51" as="geometry">
            <mxRectangle width="144" height="51" as="alternateBounds" />
          </mxGeometry>
        </mxCell>
        <mxCell id="-NBJdDoFNdwXWmNdcnpx-150" style="shape=partialRectangle;html=1;whiteSpace=wrap;connectable=0;strokeColor=inherit;overflow=hidden;fillColor=none;top=0;left=0;bottom=0;right=0;pointerEvents=1;fontSize=12;" parent="-NBJdDoFNdwXWmNdcnpx-113" vertex="1">
          <mxGeometry x="144" width="142" height="51" as="geometry">
            <mxRectangle width="142" height="51" as="alternateBounds" />
          </mxGeometry>
        </mxCell>
        <mxCell id="-NBJdDoFNdwXWmNdcnpx-115" value="" style="shape=partialRectangle;html=1;whiteSpace=wrap;connectable=0;strokeColor=inherit;overflow=hidden;fillColor=none;top=0;left=0;bottom=0;right=0;pointerEvents=1;fontSize=12;" parent="-NBJdDoFNdwXWmNdcnpx-113" vertex="1">
          <mxGeometry x="286" width="142" height="51" as="geometry">
            <mxRectangle width="142" height="51" as="alternateBounds" />
          </mxGeometry>
        </mxCell>
        <mxCell id="-NBJdDoFNdwXWmNdcnpx-116" value="" style="shape=partialRectangle;html=1;whiteSpace=wrap;connectable=0;strokeColor=inherit;overflow=hidden;fillColor=none;top=0;left=0;bottom=0;right=0;pointerEvents=1;fontSize=12;" parent="-NBJdDoFNdwXWmNdcnpx-113" vertex="1">
          <mxGeometry x="428" width="144" height="51" as="geometry">
            <mxRectangle width="144" height="51" as="alternateBounds" />
          </mxGeometry>
        </mxCell>
        <mxCell id="-NBJdDoFNdwXWmNdcnpx-144" style="shape=partialRectangle;html=1;whiteSpace=wrap;connectable=0;strokeColor=inherit;overflow=hidden;fillColor=none;top=0;left=0;bottom=0;right=0;pointerEvents=1;fontSize=12;" parent="-NBJdDoFNdwXWmNdcnpx-113" vertex="1">
          <mxGeometry x="572" width="144" height="51" as="geometry">
            <mxRectangle width="144" height="51" as="alternateBounds" />
          </mxGeometry>
        </mxCell>
        <mxCell id="-NBJdDoFNdwXWmNdcnpx-138" style="shape=partialRectangle;html=1;whiteSpace=wrap;connectable=0;strokeColor=inherit;overflow=hidden;fillColor=none;top=0;left=0;bottom=0;right=0;pointerEvents=1;fontSize=12;" parent="-NBJdDoFNdwXWmNdcnpx-113" vertex="1">
          <mxGeometry x="716" width="144" height="51" as="geometry">
            <mxRectangle width="144" height="51" as="alternateBounds" />
          </mxGeometry>
        </mxCell>
        <mxCell id="-NBJdDoFNdwXWmNdcnpx-132" style="shape=partialRectangle;html=1;whiteSpace=wrap;connectable=0;strokeColor=inherit;overflow=hidden;fillColor=none;top=0;left=0;bottom=0;right=0;pointerEvents=1;fontSize=12;" parent="-NBJdDoFNdwXWmNdcnpx-113" vertex="1">
          <mxGeometry x="860" width="144" height="51" as="geometry">
            <mxRectangle width="144" height="51" as="alternateBounds" />
          </mxGeometry>
        </mxCell>
        <mxCell id="-NBJdDoFNdwXWmNdcnpx-105" value="" style="shape=tableRow;horizontal=0;startSize=0;swimlaneHead=0;swimlaneBody=0;strokeColor=inherit;top=0;left=0;bottom=0;right=0;collapsible=0;dropTarget=0;fillColor=none;points=[[0,0.5],[1,0.5]];portConstraint=eastwest;fontSize=12;" parent="-NBJdDoFNdwXWmNdcnpx-100" vertex="1">
          <mxGeometry y="206" width="1004" height="52" as="geometry" />
        </mxCell>
        <mxCell id="-NBJdDoFNdwXWmNdcnpx-106" value="кол-центр" style="shape=partialRectangle;html=1;whiteSpace=wrap;connectable=0;strokeColor=inherit;overflow=hidden;fillColor=none;top=0;left=0;bottom=0;right=0;pointerEvents=1;fontSize=12;" parent="-NBJdDoFNdwXWmNdcnpx-105" vertex="1">
          <mxGeometry width="144" height="52" as="geometry">
            <mxRectangle width="144" height="52" as="alternateBounds" />
          </mxGeometry>
        </mxCell>
        <mxCell id="-NBJdDoFNdwXWmNdcnpx-151" style="shape=partialRectangle;html=1;whiteSpace=wrap;connectable=0;strokeColor=inherit;overflow=hidden;fillColor=none;top=0;left=0;bottom=0;right=0;pointerEvents=1;fontSize=12;" parent="-NBJdDoFNdwXWmNdcnpx-105" vertex="1">
          <mxGeometry x="144" width="142" height="52" as="geometry">
            <mxRectangle width="142" height="52" as="alternateBounds" />
          </mxGeometry>
        </mxCell>
        <mxCell id="-NBJdDoFNdwXWmNdcnpx-107" value="" style="shape=partialRectangle;html=1;whiteSpace=wrap;connectable=0;strokeColor=inherit;overflow=hidden;fillColor=none;top=0;left=0;bottom=0;right=0;pointerEvents=1;fontSize=12;" parent="-NBJdDoFNdwXWmNdcnpx-105" vertex="1">
          <mxGeometry x="286" width="142" height="52" as="geometry">
            <mxRectangle width="142" height="52" as="alternateBounds" />
          </mxGeometry>
        </mxCell>
        <mxCell id="-NBJdDoFNdwXWmNdcnpx-108" value="" style="shape=partialRectangle;html=1;whiteSpace=wrap;connectable=0;strokeColor=inherit;overflow=hidden;fillColor=none;top=0;left=0;bottom=0;right=0;pointerEvents=1;fontSize=12;" parent="-NBJdDoFNdwXWmNdcnpx-105" vertex="1">
          <mxGeometry x="428" width="144" height="52" as="geometry">
            <mxRectangle width="144" height="52" as="alternateBounds" />
          </mxGeometry>
        </mxCell>
        <mxCell id="-NBJdDoFNdwXWmNdcnpx-145" style="shape=partialRectangle;html=1;whiteSpace=wrap;connectable=0;strokeColor=inherit;overflow=hidden;fillColor=none;top=0;left=0;bottom=0;right=0;pointerEvents=1;fontSize=12;" parent="-NBJdDoFNdwXWmNdcnpx-105" vertex="1">
          <mxGeometry x="572" width="144" height="52" as="geometry">
            <mxRectangle width="144" height="52" as="alternateBounds" />
          </mxGeometry>
        </mxCell>
        <mxCell id="-NBJdDoFNdwXWmNdcnpx-139" style="shape=partialRectangle;html=1;whiteSpace=wrap;connectable=0;strokeColor=inherit;overflow=hidden;fillColor=none;top=0;left=0;bottom=0;right=0;pointerEvents=1;fontSize=12;" parent="-NBJdDoFNdwXWmNdcnpx-105" vertex="1">
          <mxGeometry x="716" width="144" height="52" as="geometry">
            <mxRectangle width="144" height="52" as="alternateBounds" />
          </mxGeometry>
        </mxCell>
        <mxCell id="-NBJdDoFNdwXWmNdcnpx-133" style="shape=partialRectangle;html=1;whiteSpace=wrap;connectable=0;strokeColor=inherit;overflow=hidden;fillColor=none;top=0;left=0;bottom=0;right=0;pointerEvents=1;fontSize=12;" parent="-NBJdDoFNdwXWmNdcnpx-105" vertex="1">
          <mxGeometry x="860" width="144" height="52" as="geometry">
            <mxRectangle width="144" height="52" as="alternateBounds" />
          </mxGeometry>
        </mxCell>
        <mxCell id="-NBJdDoFNdwXWmNdcnpx-109" value="" style="shape=tableRow;horizontal=0;startSize=0;swimlaneHead=0;swimlaneBody=0;strokeColor=inherit;top=0;left=0;bottom=0;right=0;collapsible=0;dropTarget=0;fillColor=none;points=[[0,0.5],[1,0.5]];portConstraint=eastwest;fontSize=12;" parent="-NBJdDoFNdwXWmNdcnpx-100" vertex="1">
          <mxGeometry y="258" width="1004" height="52" as="geometry" />
        </mxCell>
        <mxCell id="-NBJdDoFNdwXWmNdcnpx-110" value="партнерский кол-центр" style="shape=partialRectangle;html=1;whiteSpace=wrap;connectable=0;strokeColor=inherit;overflow=hidden;fillColor=none;top=0;left=0;bottom=0;right=0;pointerEvents=1;fontSize=12;" parent="-NBJdDoFNdwXWmNdcnpx-109" vertex="1">
          <mxGeometry width="144" height="52" as="geometry">
            <mxRectangle width="144" height="52" as="alternateBounds" />
          </mxGeometry>
        </mxCell>
        <mxCell id="-NBJdDoFNdwXWmNdcnpx-152" style="shape=partialRectangle;html=1;whiteSpace=wrap;connectable=0;strokeColor=inherit;overflow=hidden;fillColor=none;top=0;left=0;bottom=0;right=0;pointerEvents=1;fontSize=12;" parent="-NBJdDoFNdwXWmNdcnpx-109" vertex="1">
          <mxGeometry x="144" width="142" height="52" as="geometry">
            <mxRectangle width="142" height="52" as="alternateBounds" />
          </mxGeometry>
        </mxCell>
        <mxCell id="-NBJdDoFNdwXWmNdcnpx-111" value="" style="shape=partialRectangle;html=1;whiteSpace=wrap;connectable=0;strokeColor=inherit;overflow=hidden;fillColor=none;top=0;left=0;bottom=0;right=0;pointerEvents=1;fontSize=12;" parent="-NBJdDoFNdwXWmNdcnpx-109" vertex="1">
          <mxGeometry x="286" width="142" height="52" as="geometry">
            <mxRectangle width="142" height="52" as="alternateBounds" />
          </mxGeometry>
        </mxCell>
        <mxCell id="-NBJdDoFNdwXWmNdcnpx-112" value="" style="shape=partialRectangle;html=1;whiteSpace=wrap;connectable=0;strokeColor=inherit;overflow=hidden;fillColor=none;top=0;left=0;bottom=0;right=0;pointerEvents=1;fontSize=12;" parent="-NBJdDoFNdwXWmNdcnpx-109" vertex="1">
          <mxGeometry x="428" width="144" height="52" as="geometry">
            <mxRectangle width="144" height="52" as="alternateBounds" />
          </mxGeometry>
        </mxCell>
        <mxCell id="-NBJdDoFNdwXWmNdcnpx-146" style="shape=partialRectangle;html=1;whiteSpace=wrap;connectable=0;strokeColor=inherit;overflow=hidden;fillColor=none;top=0;left=0;bottom=0;right=0;pointerEvents=1;fontSize=12;" parent="-NBJdDoFNdwXWmNdcnpx-109" vertex="1">
          <mxGeometry x="572" width="144" height="52" as="geometry">
            <mxRectangle width="144" height="52" as="alternateBounds" />
          </mxGeometry>
        </mxCell>
        <mxCell id="-NBJdDoFNdwXWmNdcnpx-140" style="shape=partialRectangle;html=1;whiteSpace=wrap;connectable=0;strokeColor=inherit;overflow=hidden;fillColor=none;top=0;left=0;bottom=0;right=0;pointerEvents=1;fontSize=12;" parent="-NBJdDoFNdwXWmNdcnpx-109" vertex="1">
          <mxGeometry x="716" width="144" height="52" as="geometry">
            <mxRectangle width="144" height="52" as="alternateBounds" />
          </mxGeometry>
        </mxCell>
        <mxCell id="-NBJdDoFNdwXWmNdcnpx-134" style="shape=partialRectangle;html=1;whiteSpace=wrap;connectable=0;strokeColor=inherit;overflow=hidden;fillColor=none;top=0;left=0;bottom=0;right=0;pointerEvents=1;fontSize=12;" parent="-NBJdDoFNdwXWmNdcnpx-109" vertex="1">
          <mxGeometry x="860" width="144" height="52" as="geometry">
            <mxRectangle width="144" height="52" as="alternateBounds" />
          </mxGeometry>
        </mxCell>
        <mxCell id="-NBJdDoFNdwXWmNdcnpx-153" value="АБС" style="rounded=0;whiteSpace=wrap;html=1;fillColor=#fff2cc;strokeColor=#d6b656;" parent="1" vertex="1">
          <mxGeometry x="508.75" y="-818" width="251.25" height="30" as="geometry" />
        </mxCell>
        <mxCell id="-NBJdDoFNdwXWmNdcnpx-154" value="АБС" style="rounded=0;whiteSpace=wrap;html=1;fillColor=#fff2cc;strokeColor=#d6b656;" parent="1" vertex="1">
          <mxGeometry x="797" y="-766" width="251.25" height="30" as="geometry" />
        </mxCell>
        <mxCell id="-NBJdDoFNdwXWmNdcnpx-155" value="АБС" style="rounded=0;whiteSpace=wrap;html=1;fillColor=#fff2cc;strokeColor=#d6b656;" parent="1" vertex="1">
          <mxGeometry x="1076" y="-713" width="127" height="30" as="geometry" />
        </mxCell>
        <mxCell id="-NBJdDoFNdwXWmNdcnpx-156" value="Система кол-центра" style="rounded=0;whiteSpace=wrap;html=1;fillColor=#fff2cc;strokeColor=#d6b656;" parent="1" vertex="1">
          <mxGeometry x="1220" y="-663" width="127" height="30" as="geometry" />
        </mxCell>
        <mxCell id="-NBJdDoFNdwXWmNdcnpx-157" value="Система партнерского кол-центра" style="rounded=0;whiteSpace=wrap;html=1;fillColor=#fff2cc;strokeColor=#d6b656;fontSize=10;" parent="1" vertex="1">
          <mxGeometry x="1220" y="-610" width="127" height="30" as="geometry" />
        </mxCell>
      </root>
    </mxGraphModel>
  </diagram>
</mxfile>
